<?xml version="1.0" encoding="UTF-8" standalone="no"?>
<svg
   viewBox="0 0 150 150"
   version="1.1"
   id="svg1"
   sodipodi:docname="music-solid-full.svg"
   inkscape:version="1.4.2 (f4327f4, 2025-05-13)"
   width="150"
   height="150"
   xmlns:inkscape="http://www.inkscape.org/namespaces/inkscape"
   xmlns:sodipodi="http://sodipodi.sourceforge.net/DTD/sodipodi-0.dtd"
   xmlns="http://www.w3.org/2000/svg"
   xmlns:svg="http://www.w3.org/2000/svg">
  <defs
     id="defs1" />
  <sodipodi:namedview
     id="namedview1"
     pagecolor="#ffffff"
     bordercolor="#000000"
     borderopacity="0.25"
     inkscape:showpageshadow="2"
     inkscape:pageopacity="0.0"
     inkscape:pagecheckerboard="0"
     inkscape:deskcolor="#d1d1d1"
     inkscape:zoom="0.66640625"
     inkscape:cx="252.09848"
     inkscape:cy="246.84642"
     inkscape:window-width="3840"
     inkscape:window-height="2054"
     inkscape:window-x="-11"
     inkscape:window-y="-11"
     inkscape:window-maximized="1"
     inkscape:current-layer="svg1" />
  <!--!Font Awesome Free 7.1.0 by @fontawesome - https://fontawesome.com License - https://fontawesome.com/license/free Copyright 2026 Fonticons, Inc.-->
  <path
     d="m 146.25,2.1752003 c 2.37499,1.906409 3.75,4.781648 3.75,7.81315 V 104.99626 c 0,13.81365 -13.43752,25.00208 -30,25.00208 -16.56248,0 -30.000003,-11.18843 -30.000003,-25.00208 0,-13.813651 13.437523,-25.002081 30.000003,-25.002081 3.49999,0 6.87499,0.50004 10.00001,1.43762 V 44.960009 L 60,60.523804 V 124.99792 C 60,138.81157 46.562479,150 29.999999,150 13.43752,150 0,138.81157 0,124.99792 0,111.18427 13.43752,99.995839 29.999999,99.995839 c 3.49999,0 6.87499,0.500041 10.00001,1.437621 V 29.990014 c 0,-4.68789 3.24998,-8.75073 7.84375,-9.750812 L 137.84376,0.23753931 c 2.9688,-0.656305 6.0625,0.06251 8.43749,1.96891399 z"
     id="path1"
     style="stroke-width:0.312503" />
</svg>
